/* XPM */
static char *_4ca413fca5d4aaeda7687c3f131a3f6CEMxDsPkEdPKEEPa[] = {
/* columns rows colors chars-per-pixel */
"48 48 238 2 ",
"   c #3C3B3C",
".  c #463C35",
"X  c #544133",
"o  c #765038",
"O  c #3F3E41",
"+  c #3F4042",
"@  c #474648",
"#  c #59585B",
"$  c #715A4C",
"%  c #625656",
"&  c #746C5B",
"*  c #5F5E61",
"=  c #605C60",
"-  c #656566",
";  c #6B6C6D",
":  c #787363",
">  c #6C6F71",
",  c #717172",
"<  c #797B7B",
"1  c #875736",
"2  c #915938",
"3  c #A85935",
"4  c #B75D37",
"5  c #9E6136",
"6  c #A56737",
"7  c #B66737",
"8  c #BA723B",
"9  c #CF5A3F",
"0  c #C5793C",
"q  c #CB7D3D",
"w  c #D17E3B",
"e  c #946D52",
"r  c #86765B",
"t  c #B2704D",
"y  c #B9764C",
"u  c #AF6858",
"i  c #877C62",
"p  c #CA5A40",
"a  c #D15B40",
"s  c #CE6246",
"d  c #CC6649",
"f  c #D26345",
"g  c #D26648",
"h  c #D46C4C",
"j  c #D07046",
"k  c #D5704E",
"l  c #D56E51",
"z  c #C87656",
"x  c #D47554",
"c  c #D67A58",
"v  c #D67D5B",
"b  c #C97C66",
"n  c #898C1F",
"m  c #8E9126",
"M  c #B2962E",
"N  c #ACAC2B",
"B  c #D4813D",
"V  c #C1973D",
"C  c #98845D",
"Z  c #BA8958",
"A  c #B29151",
"S  c #B9995E",
"D  c #AEBF53",
"F  c #968E6F",
"G  c #AE9672",
"H  c #99A26A",
"J  c #94B479",
"K  c #AEAE65",
"L  c #ADB475",
"P  c #C88755",
"I  c #D7825C",
"U  c #D8835E",
"Y  c #D1A95E",
"T  c #CCB756",
"R  c #C6836C",
"E  c #D98562",
"W  c #D88A69",
"Q  c #D1976A",
"!  c #C58772",
"~  c #D68C74",
"^  c #CB9476",
"/  c #D49374",
"(  c #DE9173",
")  c #D59979",
"_  c #EF9669",
"`  c #F59667",
"'  c #E2977B",
"]  c #D4AA65",
"[  c #D9AD66",
"{  c #CFA972",
"}  c #EBAC75",
"|  c #F3A873",
" . c #F6AB73",
".. c #F1B27C",
"X. c #FABF7C",
"o. c #A9C369",
"O. c #BECC7D",
"+. c #CAC65D",
"@. c #C9C767",
"#. c #CBC773",
"$. c #F9C07E",
"%. c #6E7C83",
"&. c #788388",
"*. c #7E998E",
"=. c #798B93",
"-. c #74A89D",
";. c #78ACA1",
":. c #7FB5A9",
">. c #5CCCD8",
",. c #65CFD9",
"<. c #64D0D9",
"1. c #6ED3DA",
"2. c #76D6DB",
"3. c #7AD5DA",
"4. c #7FD9DC",
"5. c #9A9984",
"6. c #869090",
"7. c #979997",
"8. c #AF9D90",
"9. c #8EA794",
"0. c #ACAA8A",
"q. c #BCB299",
"w. c #879CA6",
"e. c #96A7AD",
"r. c #85BAAD",
"t. c #98BBA9",
"y. c #87BDB1",
"u. c #99B6B6",
"i. c #AAA8A4",
"p. c #B6AEA7",
"a. c #B8B8A6",
"s. c #A5B6B0",
"d. c #B2BCB3",
"f. c #BBBDBF",
"g. c #CD9C81",
"h. c #DB9985",
"j. c #E79B85",
"k. c #F2998B",
"l. c #C4AA8B",
"z. c #D8A589",
"x. c #CEB18F",
"c. c #DCAA96",
"v. c #C9B49D",
"b. c #D6B997",
"n. c #E5A38B",
"m. c #E5A588",
"M. c #F3A08E",
"N. c #E9B78B",
"B. c #EAAB96",
"V. c #F5A893",
"C. c #E3B895",
"Z. c #EBB49C",
"A. c #F7BB9B",
"S. c #CAB9A6",
"D. c #D6BAA8",
"F. c #CEBFB2",
"G. c #EDADA0",
"H. c #EDBBA4",
"J. c #EEBFA8",
"K. c #9AC69E",
"L. c #ACC689",
"P. c #8BC5B8",
"I. c #8ECABD",
"U. c #98CBB8",
"Y. c #96D3B9",
"T. c #A5C4AB",
"R. c #B0C4A8",
"E. c #ABCBB8",
"W. c #A5D4B4",
"Q. c #D8CA9B",
"!. c #E7C38B",
"~. c #E8C596",
"^. c #EACB9E",
"/. c #F6C89D",
"(. c #D7C5AA",
"). c #D2CAAF",
"_. c #CAC7B9",
"`. c #D3C4B6",
"'. c #D7C8B6",
"]. c #D9C9BA",
"[. c #EDCBAD",
"{. c #F5CCA1",
"}. c #F5DAA6",
"|. c #F7DAA7",
" X c #D7E0BD",
".X c #F7E3AC",
"XX c #FCE5AC",
"oX c #9DBBC2",
"OX c #B6BEC2",
"+X c #8CCCCD",
"@X c #95CAC3",
"#X c #95D3C5",
"$X c #99D7C8",
"%X c #99D6C9",
"&X c #9AD9CB",
"*X c #89D6D6",
"=X c #84DADD",
"-X c #8CDDDE",
";X c #97D6D6",
":X c #96DEDE",
">X c #9ADEDD",
",X c #A6C9C9",
"<X c #A4D5CF",
"1X c #A7C7D4",
"2X c #A6DBD2",
"3X c #B4D4D3",
"4X c #9AE1DF",
"5X c #A8E3D8",
"6X c #B6E2DB",
"7X c #B8E8DF",
"8X c #B3D5E4",
"9X c #95E0E0",
"0X c #9CE1E0",
"qX c #A4E4E1",
"wX c #ACE5E2",
"eX c #ADE8E4",
"rX c #BAE7E5",
"tX c #B2E8E4",
"yX c #BEE1F1",
"uX c #DDD3C2",
"iX c #D3D2CB",
"pX c #D8D4CF",
"aX c #E8DEDA",
"sX c #D6E2C2",
"dX c #C7E7DB",
"fX c #D1E2D0",
"gX c #EEE3C7",
"hX c #C8EBE7",
"jX c #D7EDEE",
"kX c #CAF3E9",
"lX c #DAF1EC",
"zX c #C4E9F9",
"xX c #CBF2FF",
"cX c #F1E7E5",
"vX c #E4F0EF",
"bX c #E4F1F0",
"nX c #EDF2F2",
"mX c #F2F2F2",
/* pixels */
">.>.>.>.>.>.>.>.>.>.>.>.>.>.>.>.>.>.>.>.>.>.>.>.>.>.>.>.>.>.>.>.>.>.>.>.>.>.>.>.>.>.>.>.>.>.>.>.",
",.,.,.,.,.,.,.,.,.,.,.,.,.,.<.,.,.,.,.,.,.,.,.,.<.<.<.<.<.,.,.,.,.,.,.<.<.<.<.<.,.,.,.,.,.,.<.<.",
"1.1.1.1.1.1.1.1.1.1.1.2.4.qXhXhXqX3.1.1.1.2.2.1.1.1.1.1.1.1.1.1.1.1.2.1.1.1.1.1.1.1.1.1.1.1.1.1.",
"2.2.2.2.2.2.2.2.2.2.2.=XjXmXmXmXmXrX3.2.3.3.3.2.2.2.2.2.2.2.2.3.3.3.3.2.2.2.2.2.2.2.2.2.2.2.2.2.",
"4.4.4.4.4.4.4.4.4.4.=XhXmXmXmXmXmXbX9X4.=X=X=X=X=X4.=X4.4.*X+Xs.s.u.+X=X4.4.=X=X=X=X4.4.4.4.4.4.",
"=X=X=X=X=X=X=X=X=X=XwXnXmXmXmXmXmXmXwX=X=X=X=X=X=X=X-X=X-X*Xu.i.i.i.@X-X-X-X-X-X*X-X=X=X=X=X=X=X",
"-X-X-X-X-X-X-X-X-X:XhXmXmXmXmXmXmXmXrX-X-X-X-X-X-X-X-X-X-X;X@Xi.i.i.@X-X-X-X:XY.o.#X-X-X-X-X:X:X",
"9X9X9X9X9X9X9X:X:X>XlXmXmXmXmXmXmXmXrXtXhXhX>X:X:X:X:X:X:X;XE.i.i.i.@X:X:X9X4XL.N J :X:X:X:X:X:X",
"0X0X0X0XqXrXjXjXrXwXvXmXmXmXmXmXmXmXjXaXh.~ ! R ! R R R R b b z z z b R s.0XW.D m m Y.0X0X0X0X0X",
"qXqXqXwXlXmXmXmXmXlXnXmXmXmXmXmXmXmXmXcXh.h k h k k k k h h h k k k h b ,XW.D N m n K.qXqXqXqXqX",
"qXqXwXkXvXvXvXbXbXbXbXvXvXvXvXvXbXvXvXbX(.U E E U E E E E I E U U E U l.5Xo.N N m n H 5XqXqXqXqX",
"wXwXwXtXtXtXtXtXtXtXtXtXtXtXtXtXtX2X,XwXS.v n.H.' I I m.Z.m.I E B.Z.E ^ q.A M M m n m W.eXwXwXwX",
"tXtXtXtXtXtXtXtXtXtXtX6X6X6XtXtX,Xw.6.u.S.I n.Z.j.I I n.B.j.I W Z.Z.E / l.V M m m n m W.tXtXtXtX",
"tXrX7X7X7X7X7X7X7X7XrXD.( ' iXrX3X].'.iXl.c c.C.h.c c h.c.) x E c.B.E E ~ P j P Z Z Z c.D.S.D.D.",
"dX^.~.~.~.~.~.~.~.~.~.N. . .!.~.).uX]._.b f d d g f f s d s f f s s f g h l l ' C.C.C.C.C.C.C.v.",
"'.X.X.X.$.X.X.X.X.X.X.X.$.$.X.X.!.].].dXv.I U U I I I U U I I I U I I / v.Q.Q..XXXXXXXXXXXXX.XsX",
"N. . . . . . . . . . . . . . . ...a.e.6XS.U U I U E U I I E U U v I U ) ).[.(.XXXX|..XXXXX|..XgX",
"_.v.a.a.q.a.a.q.a.a.q.a.a.q.a.a.).,Xu.hXS.U ( ' E U E j.' U E E n.m.U ) v.x.b..X|.~.^.XX|.C.^.sX",
"hX2X&X#X$X&X&X&X#X$X&X&X&X#X$X&XrX,Xu.kXS.v n.Z.( I ( Z.B.E U E Z.B.E ~ ^ / / |.|.~.^.XX|.~.^.sX",
"hX2XU.0.t.$X&XU.0.t.$X&XU.0.t.&XrX,Xu.kXS.I H.J.n.I ( H.H.E U ( [.[.W / g.) ) .X|.~.^.XX|.~.^.sX",
"hX2XT.{ q.#X&XT.{ q.#X&XT.{ q.$XrX,Xu.dX/ h b b c h l b b h h x R R l x v E v /.XXXXXXXXXXXXXXsX",
"hX2XP.H 9.#X&Xt.G 9.#X&Xt.G 9.$X6X,Xu.dX/ h h h h h h h h h h h h h h x W W ~ /.XX|.|.XX.X|.|.sX",
"hX2X#XI.@X$X&X#XI.@X$X&X#XI.@X$X<X@Xu.kXD.U E U E E E E E E E E E E U ) (.b.(.XX|.~.^.XX|.C.^.sX",
"hX2X&X&X&X&X&X2XhX6X&X&X&X&X&X&X<XoXu.kXD.U U E U U E I U U E E U U U ) S.b.b.XX|.C.^.XX|.C.^.sX",
"dX2X&X&X&X&X&XhXbXlX2X&X&X&X&X&X<X@Xu.kXD.I j.H.H.E U ' n.m.U U W ( E ) S.b.Q.XX|.^.{.XX|.^.{.sX",
"3X&X&X&X&X&X&XfXgXgX2X&X&X&X&X&X<X@Xu.kXD.v m.B.H.E E Z.B.B.I W H.Z.( W z.m.z.|..X.X|..XXXXXXXsX",
"3X$X&X$XI.P.P.E.'.).I.P.P.#X&X&X<Xu.u.dXv.I Z.H.[.( U Z.B.Z.I E Z.B.' Q z.m.z.C.b.C.C.c.|.XXXX X",
"K U.&X#X;.;.;.t.d.s.;.;.;.P.&X$XL.H F L P x h.z.D.W x z.h.n.x v c.z.~ v / ( ) N.{./.{.~..XXX.XQ.",
"@.W.&X$Xr.y.y.E.)._.y.r.y.I.&X$XL K H T j f s s s f f s s f f f s s s f l l l ( {.A./.~.|.XX.XQ.",
"@.W.&X#X-.-.;.r.u.t.;.;.-.P.&X$XO.K H +.Y I I U I I I I U I I I I U I W C.A.C.C././.{.~./.{.{.!.",
"@.W.&X#X:.T.R.R.R.R.R.R.r.P.&X&XO.K H +.Y E U I U U c x x x c E I I U ( {.{.{.^./.A./.~.{.{.{.!.",
"+.W.&X$Xr.b.` ` ..` ` | t.I.&X$XO.K H +.Y U E ' W v f a p 9 g U ( ( U W M.M.M.k.V.A.A.M.k.M.M.} ",
"@.W.&X$Xr.b.` ` ..` ` | t.I.&X&XO.K H +.Y I n.H.j.v f a p a f E Z.H.E W k.n.n.k.V.A.A.k.j.n.k./ ",
"@.W.&X$Xr.b.| | ..| | ..t.I.&X&XO.K H +.Y v B.H.B.v f 9 4 a f E H.J.( W k.C.C.k.V.A.A.k.B.^.k./ ",
"#.W.&X$Xr.b.` ` ..` ` ` t.I.&X$XL.K H #.] v j.n.' c f 9 4 a f v j.n.E E ~ ^ ^ ! ^ ) ) / ^ h.k.m.",
").U.#X#X:.x._ _ } _ _ } t.P.#XY.L.0.6.).z.v d t d v z y t y y y y y Z Z S S S S S S S ] } Q h.G.",
"S.9.9.9.*.5.5.5.5.5.5.5.6.6.9.9.L 7.6.'.b./ t e e r C r r : : : & : : : & & : : & & : : r ] q.].",
"'.`.`.`.`.`.`.`.`.`.`.`.`.`.`.`.].7.&.`.].`.u l.8.w.1X%.1X8X8X1X&.3X8X8X=.e.8X8Xw.w.8X1X; Y l.].",
"].].].].].].].].].].].].].D.B.B.D.7.&.`.].].8.S.6.8XzX=.8XxXxX8X=.zXxXxXw.oXxXxXu.e.xXxX&.S l.'.",
"].].].].].].].].].].].].'.B.uXuXB.7.%.F.].].].p.=.zXyX%.1X8X3X1X%.1X1X1X=.w.1X1X=.=.oXoX> S l.'.",
"].].].].].].].].].].].].D.G.s.e.B.6.%.F.].].].5.u.zX7.& : i i i r i i i r i C C C C C C C [ l.].",
"].].].].].].].].].].].].'.B.[.[.h.6.%.p.'.].`.< u.F o Z ] ] ] ] [ [ [ [ [ [ [ [ [ [ [ [ [ ] 0.].",
"].].].].].].].].].].].].].].u G S.p.p.a.'.].F.r e 4 3 8 q q q q q q q 0 0 0 0 q q q 0 0 0 0 G ].",
"pXpXpXpXpXpXpXpXpXpXpXpXpXpX&.7.pXpXpXpXpXpXiXC 3 7 4 0 8 2 5 q 0 7 7 7 7 7 0 q 6 6 q B B q G pX",
"f.f.f.f.f.f.f.f.f.f.OXOXOXOX< 6.OXf.f.f.f.OXp.t 3 4 4 6 X +   1 8 4 4 4 4 4 0 1 . . o w B w e i.",
", , , , , , , , , , , , , , # # , , , , , , ; e 2 1 1 o   6.- . 6 3 3 3 3 3 5 . > > . 6 8 8 $ - ",
"- - - - - - - - - - - - - - # # - - - - - - - = % # # # O @   @ % % % % % % # @     O # % % - - ",
"- - - - - - - - - - - - - - - - - - - - - - - - - - - - * # # - - - - - - - - * @ @ = - - - - - "
};
