/* XPM */
static char *_7b6b4fe92734b82ad77106ff7ae0d9f9Jlvz4dxcIPTJ90c[] = {
/* columns rows colors chars-per-pixel */
"48 48 235 2 ",
"   c #3F1B1B",
".  c #502E2E",
"X  c #734A3A",
"o  c #4B3F4B",
"O  c #3C4350",
"+  c #51484F",
"@  c #434954",
"#  c #5B5659",
"$  c #655758",
"%  c #735552",
"&  c #525C64",
"*  c #656566",
"=  c #6A6768",
"-  c #64696D",
";  c #776768",
":  c #6C6E71",
">  c #7D6B7C",
",  c #6A7277",
"<  c #717172",
"1  c #7F7878",
"2  c #87492A",
"3  c #9C512E",
"4  c #875439",
"5  c #975535",
"6  c #A15A38",
"7  c #92534F",
"8  c #AB544E",
"9  c #B9544C",
"0  c #A75C56",
"q  c #92644D",
"w  c #A76444",
"e  c #A7655A",
"r  c #B86757",
"t  c #A8755A",
"y  c #B77759",
"u  c #8F6E69",
"i  c #857576",
"p  c #AA7D67",
"a  c #B4776B",
"s  c #C7544A",
"d  c #D65447",
"f  c #D55649",
"g  c #718864",
"h  c #79817A",
"j  c #738F7C",
"k  c #8B8B1F",
"l  c #8B8B21",
"z  c #888C2F",
"x  c #8D902D",
"c  c #989824",
"v  c #ACAE31",
"b  c #948B4B",
"n  c #A48F57",
"m  c #98A454",
"M  c #B0B44D",
"N  c #969666",
"B  c #96976B",
"V  c #83877D",
"C  c #959D74",
"Z  c #A68369",
"A  c #B48267",
"S  c #A1857C",
"D  c #B28F75",
"F  c #90A473",
"G  c #99A878",
"H  c #A4A869",
"J  c #A4AB75",
"K  c #CB9D44",
"L  c #D8A94A",
"P  c #C9AC59",
"I  c #D5AA54",
"U  c #D6B657",
"Y  c #E5B857",
"T  c #EFBE51",
"R  c #EDBE53",
"E  c #CD9578",
"W  c #C7B375",
"Q  c #E3BC69",
"!  c #B6C157",
"~  c #CCC65D",
"^  c #CDC95E",
"/  c #D5C45A",
"(  c #EFC055",
")  c #EEC25B",
"_  c #F1C25A",
"`  c #CEC76C",
"'  c #D8C467",
"]  c #E8C46E",
"[  c #F1C869",
"{  c #E9C979",
"}  c #555180",
"|  c #73728C",
" . c #8B7F8E",
".. c #5C8486",
"X. c #5D8689",
"o. c #5E898C",
"O. c #688885",
"+. c #798986",
"@. c #6D9495",
"#. c #76999B",
"$. c #7B9A9B",
"%. c #789EA2",
"&. c #7DA1A6",
"*. c #5DCCD8",
"=. c #65CFD9",
"-. c #64D0D9",
";. c #6ED4DB",
":. c #76D6DB",
">. c #7ED9DC",
",. c #878A85",
"<. c #998A88",
"1. c #98978B",
"2. c #888E90",
"3. c #879797",
"4. c #829B99",
"5. c #989994",
"6. c #A48984",
"7. c #A7938A",
"8. c #A59A97",
"9. c #B49B91",
"0. c #98A984",
"q. c #9AB385",
"w. c #9FB68A",
"e. c #8BA69D",
"r. c #9DAB9C",
"t. c #9EBC99",
"y. c #B0AB8D",
"u. c #A4BA8C",
"i. c #ABA994",
"p. c #B8A69B",
"a. c #A7B796",
"s. c #B9B997",
"d. c #86A8AA",
"f. c #97ACA9",
"g. c #96B9B8",
"h. c #A8A9A6",
"j. c #B7A8A4",
"k. c #A6B7A8",
"l. c #B9B2AB",
"z. c #A5BAB5",
"x. c #B9B3B2",
"c. c #BBBDBF",
"v. c #C99789",
"b. c #CDA98F",
"n. c #C4BC8D",
"m. c #D2B286",
"M. c #C7A697",
"N. c #C5B798",
"B. c #DDBF93",
"V. c #C4ADA6",
"C. c #C4ADA9",
"Z. c #C6B4AC",
"A. c #D3B9A7",
"S. c #CAB4B2",
"D. c #C9B9B6",
"F. c #CCBAB5",
"G. c #D3BDB9",
"H. c #BACF86",
"J. c #A8C49B",
"K. c #B7C69C",
"L. c #A8C7A2",
"P. c #BAC6A7",
"I. c #B4CCB9",
"U. c #DCC688",
"Y. c #C7C795",
"T. c #DAC997",
"R. c #CED198",
"E. c #EACF8D",
"W. c #E2C895",
"Q. c #C8C7A7",
"!. c #D7C7A9",
"~. c #D7C8AE",
"^. c #D2D3AA",
"/. c #C7C4B8",
"(. c #D6C4B5",
"). c #D5C4BB",
"_. c #D9C7B9",
"`. c #D9C8B9",
"'. c #D5D7B6",
"]. c #E3D8B6",
"[. c #C6E2B6",
"{. c #D4E3BF",
"}. c #EAE2AE",
"|. c #EAE3B3",
" X c #EBE4BE",
".X c #ACBFC0",
"XX c #9FD0C6",
"oX c #9BD1C9",
"OX c #8CD1D1",
"+X c #85DADD",
"@X c #8DDCDE",
"#X c #99D4D4",
"$X c #97DFDF",
"%X c #A4C5C5",
"&X c #BACCC6",
"*X c #A6D9D6",
"=X c #B7D9D8",
"-X c #9DE1DF",
";X c #B2E3CD",
":X c #ABE4DD",
">X c #BAE5DA",
",X c #96DEE0",
"<X c #97E0E0",
"1X c #9CE2E0",
"2X c #A3E4E1",
"3X c #AAE5E2",
"4X c #B3EAE5",
"5X c #B8E9E4",
"6X c #C5C8C8",
"7X c #CCCDCB",
"8X c #D6C2C1",
"9X c #D9C4C3",
"0X c #D3CEC8",
"qX c #C2D3CB",
"wX c #CDD1CE",
"eX c #D3D2CD",
"rX c #D8D4CF",
"tX c #CCD3D3",
"yX c #C6DCD5",
"uX c #D6D8D5",
"iX c #E3D1C2",
"pX c #CBE6C7",
"aX c #E7E5C4",
"sX c #F3EBC3",
"dX c #F9F5CB",
"fX c #C4ECE4",
"gX c #CAEBE9",
"hX c #D8E7E7",
"jX c #C8F1E7",
"kX c #CAF2E9",
"lX c #DCF0F1",
"zX c #E5F0EF",
"xX c #E2F3F4",
"cX c #EBF2F2",
"vX c #F2F3F3",
/* pixels */
"*.*.*.*.*.*.*.*.*.*.*.*.*.*.*.*.*.*.*.*.*.*.*.*.*.*.*.*.*.*.*.*.*.*.*.*.*.*.*.*.*.*.*.*.*.*.*.*.",
"-.-.=.=.=.=.=.=.=.-.-.=.=.=.=.=.=.=.=.=.=.=.=.=.=.=.=.=.=.=.=.=.=.=.=.=.=.=.=.=.=.=.=.=.=.=.=.=.",
";.;.;.;.;.;.;.;.;.;.;.;.;.;.;.;.;.;.;.;.;.;.;.;.;.;.;.;.;.;.;.;.;.;.;.;.;.;.;.;.;.;.;.;.;.;.;.;.",
":.:.:.:.:.:.:.:.:.:.:.:.:.:.:.:.:.:.:.:.:.:.:.:.:.:.:.:.:.:.:.:.:.:.:.:.:.:.:.:.:.:.:.:.:.:.:.:.",
">.>.+X+X+X+X+X+X+X>.>.>.>.>.>.>.>.>.>.>.>.>.>.>.>.>.>.>.>.>.>.>.>.>.>.>.>.>.>.>.>.>.>.>.>.>.>.>.",
"+X+X+X+X+X+X+X+X+X+XOXg.g.g.g.g.g.g.g.g.g.g.g.OX+X+X+X+X+X+X+X+X+X+X+X+X+X+X+X$X3X4X2X+X+X+X+X+X",
"@X@X@X@X@X@X@X@X@X@X#Xl.C.C.C.C.C.C.C.C.V.C.l.OX$X$X@X@X@X@X@X@X@X@X@X@X@X@X-XlXvXvXcXfX@X,X2X-X",
"$X$X$X$X$X$X$X$X$X$X$X7X9X9X8X8X9X9X9X9X9X9XqX<X$X$X$X$X$X$X$X$X$X$X$X2X3X2XfXvXvXvXvXcX5XhXcXxX",
"1X1X1X1X1X1X1X1X1X1X-X7X9XS.p.p.C.8X9XG.Z.G.qX-X1X1X1X1X1X1X1X1X1X1X4XxXcXzXzXvXvXvXvXvXcXvXvXvX",
"2X2X2X2X2X2X2X2X2X2X:X7XF.p.N.N.p.S.).j.i.F.qX2X2X3X2X2X2X2X2X2X2X2X5XgXgXgXgXgXgXgXgXgXgXgXgXgX",
"3X3X3X3X3X3X3X3X3X3X:X7XV.N.y.9.N.p.C.6.p.).7X*XoXoXoXoXoXoXoXoXoXoXoXoX*X3X3X3X3X3X3X3X3X3X3X3X",
"3X3X3X3X3X3X3X3X3X3X3X7XC.].dXdX XV.S.p.S.9XwXXXg g g g g g g g g g g g XX3X#X#X3X3X3X3X:XI.:X3X",
"4X4X4X4X4X4X4X4X4X4X4X7XC.].dXdXsXV.9X9X9X8X7X:Xt.J.'.'.'.^.q.q.q.q.q.t.:X%X3.3.%X4X4X4X;XM J.4X",
"*X*X*X=X=X*X*X*X*X*X*XI.j.N.A.A.N.9.8X9X8X8XwX4XL.P.aX}.|.aX0.u.^.^.K.L.4XqX`.`.&X4X4X;XH.c m >X",
"d.O.O.O.O.O.O.O.O.O.O.O.+.7.7.7.7.p.8X8X9X8XwX5Xt.w. X}.}.aXu.K.|.|.K.L.5XyX].iX=X4X5XH.v c x I.",
"I.P W n.n.n.W P P P P P b.F.).).G.C.j.j.S.8XwX5Xt.0.Q.Y.Y.Q.w.K.|.|.a.J.5XyX`.0X>X5X>X! v c l J ",
"sXY Y.d.$.d.E.( ] { ] R E 9.).8Xj.x.6X6Xj.Z.eX5XJ.q.C C B G F a.|.|.K.L.5X>Xh.z.>X5XpXM c l l H ",
"sXY n.@.X.#.W.( a.d.r.I E j.).F.j.c.7.8.&Xj.wXfXJ.q.G G C 0.q.u.K.K.u.L.fXfXg.%XjXfXpXM c l l m ",
"pX) T.g.g.z.E.R s.d.r.I T.Z.j.C.x.tXqXtXtXj.7XfXJ.0.F F F a.P.P.K.u.w.L.fXjXg.%XjXjXpXv c l l z ",
"pX) T.@.o.#.U.L 0.&.r.) m.7.p.Z.6XxXxXxXlXx.7XfXJ.J.J.F 0.aX|.|.aXJ.u.L.fXkXg.%XkXjX[.v l k l z ",
"pX) T.#.@.&.W.R U.n.n.) m.7.C.F.6XxXxXxXlXx.7XfXa.F q.q.u.'.R.R.^.0.F L.fXkXg.%XkXkXR.c l k l x ",
"pX) { T.T.T.E.Y.s.T._ R B.D.G.F.x.tX7XtX7Xj.D.fXJ.q.q.0.F C C C C q.q.L.fXgXg.%XkXkXR.v l l l b ",
"{.R Y W.T.T.E.f.@.l._ R B.j.l.F.6.S S S S S p v.D n n n Z D D D Z N J i.=X=Xg.%XkXkX[.v c l l m ",
"{.I I k.&.d.].k.&.P._ R T.Z.D.8XF.S.S.S.S.9.5 t e 2 2 5 a y A y 5 5 a A j.=Xg.%XkXkXpXM c l l H ",
"{.Y Y k.#.$.^.k.e.Q._ R W.8XC.j.F.9X9X9X9X9.t y 5 2 2 2 w A A w 2 t A y q .Xg.%XkXkXpXM k k l u.",
"{.) [ I.d.d.W.U Q T.s.{ B.p.x.x.h.S.9X9XM.w w y w w 3 3 y y y r 6 6 w y w S g.g.>XkXjXH.c k x k.",
"'.) [ k.%.%.U.L L a.%.n.m.h.8.<.l.j.8XS.p 4 4 t Z p 4 q Z Z p Z q X 4 t t q 5.g.=XfX>X&Xm b K.&X",
"W R [ k.%.%.T.R Y a.%.n.m.c.uXtXtXj.G.7.6.+.O.h V h O.O.h V h V h V h O.O.C B G H.Y.K.K.J B R.Y.",
"/ R ) !.Q.Q.E.[ [ Y.s.U.m.tXxXxXlXl.G.j.j.$...i. X1.X.o.+.'.Q.'.N.].1.X.o.G H H ^ ^ ~ ^ H b ~ ~ ",
"/ R R _ L I ^.k./.[ R R m.6XhXhXuXj.Z.p.D.$...7.!.,.X.X.+. X~. X!.sX0.X.o.G H H ` ` ~ ^ n b ~ ~ ",
"/ R ( R L Y P.#.z.[ L L m.6.6.6.6.9.D.l.D.$...i.sX1.X.o.O.i.1.i.1.i.+.X.o.G H H ^ ~ ~ ~ M n ~ ~ ",
"/ R R R R _ /.d.I.] K L B.S.S.S.Z.F.9X9X8X$...7.!.,.X.O.O.| O.X.X.X.O.o.o.G H H ^ ~ ~ ~ ~ ~ ~ ~ ",
"U L K Y R _ Q.$.z.[ R ( W.9X9X9X9X9X9X9X8X$...i.sX1...r.c.&X+.X.o.o.o.o.o.G H H ^ ~ ~ ~ ~ ~ ~ ~ ",
"P R L L R R { { { ) ( R W.9X9X9X9X9X9X9X8X$.X.,.i.+...h.6XtX2.X.o.o.o.o.o.G H H ^ ~ ~ ~ ~ ~ ~ ~ ",
"' ( R R R R R R R R ( R W.9X9X9X9X9X9X9X).$.X.X.X.X.X.5.l.x.+.o.o.o.o.o.o.G J J ` ` ` ` ` ` ` ` ",
"y.N N N N N N N N N N N 0.).).).).).).).s.j X.X.X.X...h.7XtX3..., ..o.X.X.r.5.5.~.~.~.~.~.~.~.~.",
"r.$.4.4.4.4.$.$.,.+.1 1 ,.M.V.Z.Z.Z.Z.Z.s.0.4.4.4.4.4.i.j.9.u ; % ,.4.4.4.l.2.5.`.`.`._._._.`.`.",
"`._._._._.`.M.a e e 0 0 e e a F.`.`.`.`.`.`.`.`.`._.`.A.D D y q D ~._._._._.2.2.`.`._._._._.`.`.",
"`.`.`.`.`.Z.u ; , , ; : , < ; 7.`.`.`.`.`.`.`.`.`.`.`.(.b.v.X   % (.`.`.`.(.2.2._.`.`.`.`.`.`.`.",
"`.`.`.`.`.1.; , , , = : < , : ; Z.`.`.`.`.`.`.`.`.`._.N.b.D . . % i A.`.`.(.2.2._.`.`.`.`.`.`.`.",
"_._._.`.A.r 7 0 0 0 8 8 0 0 0 0 a E b._._._.`.`._._.(.A.A.D . % b.9.M.(.`.~.V 2._.`.`.`.`.`.`.`.",
"`._._.`.v.f 9 9 f f s 9 f f f s f d r A.`._._._._._._.(.iXG.> | i % % 9._.s.N +.l._.`.`.`.`.`.`.",
"`._.`.`.a s s 8 8 s s f f f f 9 8 9 9 M.`.`.`.`.`.`.`.V.<.j.).| } . u j._.Z.s.l.Z.`.`.`.`.`.`.`.",
"0Xj.l.6Xa s 7 @ @ 7 s f f f s + @ + 9 b.rXrXrXrXrXrXrX/.7.<._. .| i <.j.eXrXrXrXrXrXrXrXrXrXrXrX",
"c.h.8.h.5.u o & & + 0 0 0 0 7 O - @ $ 5.c.c.c.c.c.c.x.i i i 8.|  .<.i ; <.c.c.c.c.c.c.c.c.c.c.c.",
"< < < < < * @ O O @ * * * * # O @ O & < < < < < < < = $ i i ; $ 1 $ ; i $ : < < < < < < < < < < ",
"* * * * * * * # # * * * * * * # @ # * * * * * * * * * + $ $ $ * * # $ $ + * * * * * * * * * * * ",
"* * * * * * * = = * * * * * * * = * * * * * * * * * * * # # * * * * # + $ * * * * * * * * * * * "
};
