/* XPM */
static char *_c206e23ee8c4484de76d21a1782683ede1oouKjQcYmB5y2[] = {
/* columns rows colors chars-per-pixel */
"48 48 227 2 ",
"   c #7C3D2F",
".  c #44492F",
"X  c #464B31",
"o  c #484E34",
"O  c #51553C",
"+  c #654A39",
"@  c #75473B",
"#  c #5B5E43",
"$  c #5D5153",
"%  c #7B4C42",
"&  c #70564B",
"*  c #795548",
"=  c #635454",
"-  c #5D6045",
";  c #5D6248",
":  c #5E6C56",
">  c #646C55",
",  c #6A6954",
"<  c #656565",
"1  c #6B6B6C",
"2  c #7E756D",
"3  c #814B3F",
"4  c #86533E",
"5  c #874D41",
"6  c #885447",
"7  c #93564A",
"8  c #95594C",
"9  c #8A5C52",
"0  c #935D52",
"q  c #88644C",
"w  c #956A4A",
"e  c #89635B",
"r  c #926455",
"t  c #9A6B59",
"y  c #9A7650",
"u  c #99785A",
"i  c #A77A56",
"p  c #866A66",
"a  c #956D62",
"s  c #996D62",
"d  c #8B756B",
"f  c #977367",
"g  c #857674",
"h  c #837B7B",
"j  c #A37A68",
"k  c #B57965",
"l  c #C07863",
"z  c #79876B",
"x  c #8B8B1F",
"c  c #8B8B20",
"v  c #888C2F",
"b  c #979824",
"n  c #8C9134",
"m  c #A7A72A",
"M  c #B0B335",
"N  c #969747",
"B  c #8E8950",
"V  c #A8834E",
"C  c #AE944D",
"Z  c #AE8256",
"A  c #B9855B",
"S  c #B4895A",
"D  c #BB8A5C",
"F  c #BB9556",
"G  c #93A04D",
"H  c #99A557",
"J  c #B3BA43",
"K  c #BAA959",
"L  c #A9B256",
"P  c #8F8D70",
"I  c #9E8A77",
"U  c #92937D",
"Y  c #B68A66",
"T  c #B08D6C",
"R  c #A68774",
"E  c #A6957B",
"W  c #BC947F",
"Q  c #9EA669",
"!  c #9DA873",
"~  c #A7AA69",
"^  c #A4A86A",
"/  c #A5AB74",
"(  c #B9A47D",
")  c #B6B97C",
"_  c #C28E5B",
"`  c #C3975A",
"'  c #D2915F",
"]  c #CAA458",
"[  c #D4AA59",
"{  c #C4B45A",
"}  c #D7B05B",
"|  c #E6BB5E",
" . c #C68668",
".. c #CD9465",
"X. c #CD9A6A",
"o. c #D49964",
"O. c #D59277",
"+. c #E09678",
"@. c #CAA865",
"#. c #C6B566",
"$. c #D5B165",
"%. c #D5AC73",
"&. c #E5BC63",
"*. c #E7B078",
"=. c #B6C768",
"-. c #CCC65D",
";. c #CDC95E",
":. c #ECC05F",
">. c #CDC861",
",. c #CEC670",
"<. c #C8C578",
"1. c #FACC65",
"2. c #F4CB69",
"3. c #E9C371",
"4. c #7D8987",
"5. c #5DCCD8",
"6. c #65CFD9",
"7. c #65D0D9",
"8. c #6ED4DB",
"9. c #76D6DB",
"0. c #7ED9DC",
"q. c #8C8885",
"w. c #818B8A",
"e. c #898F8D",
"r. c #948C87",
"t. c #9D958E",
"y. c #9A9888",
"u. c #8B9395",
"i. c #999A97",
"p. c #A59684",
"a. c #B89D8D",
"s. c #A49D9A",
"d. c #9DA48E",
"f. c #B9A28B",
"g. c #AEB18D",
"h. c #A3A992",
"j. c #A7A995",
"k. c #B8A898",
"l. c #9CAAA7",
"z. c #99B7B9",
"x. c #A8A9A7",
"c. c #ADB2A9",
"v. c #B3B4AD",
"b. c #BAB4A8",
"n. c #B8B6B0",
"m. c #BBBCB2",
"M. c #B8B9BB",
"N. c #C6AC88",
"B. c #D2B086",
"V. c #C3A995",
"C. c #C8B79A",
"Z. c #D8B994",
"A. c #E7BE98",
"S. c #C9BAA8",
"D. c #D4BDA7",
"F. c #C2BEB7",
"G. c #B9CB8C",
"H. c #9DC1BF",
"J. c #B5C4B9",
"K. c #B0D0B3",
"L. c #D7CE8F",
"P. c #C4C795",
"I. c #CDCF90",
"U. c #E8C88B",
"Y. c #EACD94",
"T. c #CAC4A9",
"R. c #D2C2AC",
"E. c #D7C8AA",
"W. c #C3DAA1",
"Q. c #CAC7B7",
"!. c #D5C4B4",
"~. c #D8C8B2",
"^. c #D9C7B9",
"/. c #D7C9B9",
"(. c #DAC9BA",
"). c #DCD2BD",
"_. c #E0CBAD",
"`. c #C6E2B7",
"'. c #9DC9CA",
"]. c #80D9DC",
"[. c #89DBDD",
"{. c #93DEDE",
"}. c #A4C5C5",
"|. c #A8C9C2",
" X c #BAD5C9",
".X c #B0D1D0",
"XX c #BAD9D8",
"oX c #B4E4CD",
"OX c #ACE4DB",
"+X c #BBE7D9",
"@X c #BDE4DC",
"#X c #95DDE0",
"$X c #9CE2E0",
"%X c #A3E4E1",
"&X c #ABE5E2",
"*X c #B6E7E7",
"=X c #B4E9E4",
"-X c #BBEBE5",
";X c #C9D6CB",
":X c #D7D4CF",
">X c #DCD6C8",
",X c #D7D4D0",
"<X c #D8D4D0",
"1X c #E2D4C1",
"2X c #E2DBC5",
"3X c #E0D7CD",
"4X c #E2DCCB",
"5X c #E3DBD2",
"6X c #C4E7C9",
"7X c #C4E8DB",
"8X c #E5E1CD",
"9X c #E7E3D2",
"0X c #C4EEE6",
"qX c #C9EFE7",
"wX c #C6EBE9",
"eX c #D4EFEA",
"rX c #CBF1E6",
"tX c #C4F0E8",
"yX c #CAF2E9",
"uX c #D7F1EB",
"iX c #DBEEF1",
"pX c #E6F2EF",
"aX c #E3EFF0",
"sX c #E6F2F0",
"dX c #EBF2F1",
"fX c #F2F3F2",
"gX c #F2F2F5",
/* pixels */
"5.5.5.5.5.5.5.5.5.5.5.5.5.5.5.5.5.5.5.5.5.5.5.5.5.5.5.5.5.5.5.5.5.5.5.5.5.5.5.5.5.5.5.5.5.5.5.5.",
"7.7.7.6.6.6.6.6.7.7.7.6.6.6.6.6.6.6.6.6.6.6.6.6.6.6.6.6.6.6.6.6.6.6.6.6.6.6.6.6.6.6.6.6.6.6.6.6.",
"8.8.8.9.8.8.8.9.8.8.8.8.8.8.8.8.8.8.8.8.8.8.8.8.8.8.8.8.8.8.8.8.8.8.8.8.8.8.8.8.8.8.8.8.8.8.8.8.",
"9.9.9.9.9.9.9.9.9.9.9.9.9.9.9.9.9.9.9.9.9.9.9.9.9.9.9.9.9.9.9.9.9.9.9.9.9.9.9.9.9.9.9.9.9.9.9.9.",
"].].].].].].].].].].].0.0.0.0.0.0.0.0.0.0.0.0.0.0.0.0.0.0.0.0.0.0.0.0.0.0.0.0.0.0.0.0.0.0.0.0.0.",
"[.[.[.[.[.[.[.[.[.[.[.[.[.[.[.[.[.[.[.[.[.[.[.[.[.[.[.[.[.[.[.[.[.[.[.[.[.[.[.#X&X*X&X[.[.[.[.[.",
"{.{.{.{.{.{.{.{.{.{.{.{.{.{.{.{.{.{.{.{.{.{.{.{.{.{.{.{.{.{.{.{.{.{.{.[.[.[.%XiXgXgXdXwX#X#X%X$X",
"{.{.{.{.{.{.{.{.{.{.{.{.{.{.{.{.{.{.{.{.{.{.{.{.{.{.{.{.{.{.{.{.{.{.$X%X=X%XwXgXfXfXfXdX*XuXdXsX",
"$X$X$X$X$X$X$X$X$X$X$X$X$X$X$X$X$X$X$X$X$X$X$X$X$X$X$X$X$X$X$X$X$X$X-XsXdXpXaXgXgXfXfXfXpXfXfXgX",
"%X%X%X%X%X%X%X%X%X%X%X%X%X%X%X%X%X%X%X%X%X%X%X%X%X%X%X%X%X%X%X%X%X%X=XwXwXwXwXwXwXwXwXwXwXwXwXwX",
"&X&X&X&X&X&X&X&X&X&X&X&X&X&X&X&X&X&X&X&X&X&X&X&X&X&X&X&X&X&X&X&X&X&X&X&X&X&X&X&X&X&X&X&X&X&X&X&X",
"&X&X&X&X&X&X&X&X&X&X&X&X&X&X&X&X&X&X&X&X&X&X&X&X&X&X&X&X&X&X&X&X&X&X&X&X&XOX'.'.&X&X&X&XOXK.OX&X",
"=X=X=X=X=X=X=X=X=X=X=X=X=X=X=X=X=X=X=X=X=X=X=X=X=X=X=X=X=X=X=X=X=X=X=X=X=Xz.u.u.H.=X=X=XoXL G.=X",
"=X=XwXiXeX-X=X=X=X=X=X=X=X=X=X=X=X=X=X=X=X=X=X=X=X=X=X=X=X=X=X=X=X=X=X=X=X;X(.(. X=X=XoX=.m G +X",
"-X0XdXfXgXuX-X-X-X-X-X-X-X-X-X-X-X-X-X-X-X-X-X-X-X-X-X-X-X-X-X-X-X-X-X-X-X;X).1XXX=X-XG.M b n K.",
"0XuXfXfXfXsX-X-X-X-X-X-X-X-X-X-X-X-X-X-X-X-X-X-X-X.Xw.w.w.w.q.q.q.w.w.w.4.l././.@X-X+XJ m b c / ",
"dXdXfXfXfXdXeXeX0X0X0X0X0X0X-X-X-X-X-X-X-X-X-X-XtX|.= $ $ = 6 6 6 = $ $ $ u.l.z.@X-X6XJ b c c Q ",
"dXsXsXsXsXpXpXpXuX0X0X0X0X0X0X0X0X0X0X0X-X-X0X0XtXXXi.t.t.r.r 8 0 r.t.t.t.J.z.'.tX0X6XJ b c c G ",
"qXqXqXqXqXqXqXqXqX0X0X0X0X0X0X0X@X@X@XJ.m.m.J.@X@X7X9X/.Q.1Xt e r (.>XQ.9XrXz.}.tXtX6XM b c c n ",
"0XqX0X0X0X0X0X0X0XqXqXqXqX0XtX@Xz : : y.3X>Xb.> : > Q.c.x.1Xt h a (.m.i.4XeXz.}.yXyX`.M c x c v ",
"rXrXrXrXrXrXyXrXrXrXrXrXrXrXrX7X> . X U b.s.k.o X O Q.v.v.1Xs r.f (.Q.x.>XeXz.}.yXyXW.m c x c n ",
"yXyXyXyXyXyX0XXXXXXX0XrXrXrXrX7X> X X U n.x.j.o X O Q.v.c.1Xs r.f ).Q.x.>XqXz.}.yXyXW.m c c c N ",
"c.h.h.h.h.h.h.y.y.y.h.h.h.h.h.d.; X X U k.y.j.o X O T.Q.Q.(.r * 9 !.Q.n.>XXXz.}.yXyX`.M b c c H ",
"E y y y y y y y y y y y y y y u > ; - y.!.S.b.; ; > Q.3X3X/.r 3 6 !.3X>X>XXXz.}.yXyX6XJ c c c ^ ",
"T.D S D _ D S D _ D D _ D S A N.;XS.T.>X3X5X9XT.S.Q.8Xv.m.1Xt p t (.F.v.9XXXz.}.yXrX7XL c c c g.",
"Q.Y r.I _ I r.T _ ] ] _ R r.R N.;Xt.k.9Xb.s.9XS.r.Q.9Xx.v.1Xs q.s (.v.x.4XXXz.z.XXrXrXG.b x n c.",
"T.T l.p._ p.x.T _ &.&._ R l.E ( J.s.k.9Xn.x.9XS.i.Q.8Xc.v.1Xs u.s (.v.x.4X Xl.z.XX7X@X XH N K..X",
"@.T i.I D P P u Z F S Z T i.R ` ) y.j.9Xk.y.4XS.r.C.2Xv.m.2Xs h s ).m.v.8X<.P ! P.P.G.G./ Q I.P.",
"{ D S S D i i i Z i i Z D Y D ] L.f.V.4Xk.E >XS.a.C.C.k.k.k.6 @ 6 f.k.k.V.#.Q ^ ;.;.;.;.H B -.-.",
"@...........A A A A A A A A A ` L.4X).U ; ; z Q.2XE.q * * 5 % * % 5 * * 6 K ^ ^ >.-.-.;.C B -.-.",
"$.X....... .i F F V F V F ` V F L.2Xb.; ; ; # p.>XE.t p g 8 9 h p 7 e h r { Q ^ ;.-.-.-.K C -.-.",
"$.S d d u D F | } ` | ` } &.] F L.2Xf.* 2 2 , R 2XE.t g g 7 9 q.p 7 p h r { Q ^ ;.-.-.-.-.-.-.-.",
"@.i & & q D ] 1.:.] 1.[ &.1.[ F L.4XV.9 r.r.d R 2XE.t g g 7 9 h p 7 e h r { ^ ^ ;.-.-.-.-.-.-.-.",
"@.i + + 6 D ] 1.:.] 1.[ | 1.[ F L.>XV.9 r.q.d R >XE.t p d 8 9 h e 7 e g r { ^ ^ ;.-.-.-.-.-.-.-.",
"%.i + + 6 Y F ] C ] 1.] ] } F F I.).V.5 * * % R >Xb.0 % w V 4 % 5 5 3 % 6 #.! / ,.,.,.,.,.,.,.,.",
"Z.i + + * ..D i u F 1.] B S A K ) S.p.0 a a r j k.E 4 @ q F 4 % @   @ % @ V.i.i.~.~.~.~.~.~.~.~.",
"D.W d d R O.O.+.O...*.X. .B.B.N.g.S.a.a.>X>XS.T o.*.j s N #.T s s t s s f S.u.u.^.^.^.^.^.^.^.^.",
"^.^.^.^.!.k l k k O.o.o.k W ^.^.^.^.^.^.^.^.^.D.*.A.E.!.! f.T.!.^.^.^.^.^.^.e.u.!.!.^.^.^.^.^.^.",
"^.^.^.^.!.k  .o.'  .o.&.A W ^.^.^.^.^.^.^.^.^.R.f.E.Z.Z.( ( C.D.D.^.^.^.^.!.e.w.T.!.^.^.^.^.^.^.",
"^.^.^.^.S.t $.2.2. .Y @.i j !.^.^.^.^.^.^.^.C.V.%.U.*.@.Y f.D.!.D.^.^.^.^.!.w.P P.R./.^.^.^.^.^.",
"^.^.^.^.D.R 3.U.U.Z.S.S.k.R !.^.^.^.^.^.^.D.C.Z.@.B.N.B.E.C.!.D.!.^.^.^.^.!.w.z ) T.^.^.^.^.^.^.",
"^.^.^.^.!.k._.Y.Y._.^.^.!.k.^.^.^.^.^.^.^.R.C.Z.N.C.S.C.E.C.^.^.^.^.^.^.^.b.4.G L T.^.^.^.^.^.^.",
"(.(.(.(.^.^.^.f.f.D.(.^.(.^.(.(.(.(.(.(.(.(.R.D.^.(.(.R.D.!.(.(.(.(.(.(.^.S.b.S.P.^.(.^.(.(.(.(.",
":X:X:X:X:X,X:XF.b.Q.<X:X,X,X,X:X:X:X:X:X:X,X,X,X,X:X:X,X,X,X:X:X:X:X:X:X:X<X,X,X,X:X:X:X:X:X:X:X",
"M.M.M.M.M.M.M.M.M.M.M.M.M.M.M.M.M.M.M.M.M.M.M.M.M.M.M.M.M.M.M.M.M.M.M.M.M.M.M.M.M.M.M.M.M.M.M.M.",
"1 1 1 1 1 1 1 1 1 1 1 1 1 1 1 1 1 1 1 1 1 1 1 1 1 1 1 1 1 1 1 1 1 1 1 1 1 1 1 1 1 1 1 1 1 1 1 1 ",
"< < < < < < < < < < < < < < < < < < < < < < < < < < < < < < < < < < < < < < < < < < < < < < < < ",
"1 1 1 1 1 1 1 1 1 1 1 1 1 1 1 1 1 1 1 1 1 1 1 1 1 1 1 1 1 1 1 1 1 1 1 1 1 1 1 1 1 1 1 1 1 1 1 1 "
};
