/* XPM */
static char *d5bf50f40ea0423dc17b565070050c52oKxnOghs6m4CBWfX[] = {
/* columns rows colors chars-per-pixel */
"48 48 231 2 ",
"   c #44492F",
".  c #454B31",
"X  c #484E34",
"o  c #6F6C3F",
"O  c #4E474C",
"+  c #514A4E",
"@  c #585C43",
"#  c #544D52",
"$  c #5C535B",
"%  c #765447",
"&  c #6A5657",
"*  c #61565D",
"=  c #745755",
"-  c #5D6247",
";  c #5E6C57",
":  c #6F715A",
">  c #727051",
",  c #635B61",
"<  c #656565",
"1  c #6A6167",
"2  c #6A6269",
"3  c #6B6B6C",
"4  c #727269",
"5  c #7C777A",
"6  c #924E39",
"7  c #93513C",
"8  c #9E594E",
"9  c #8C5D51",
"0  c #AE5D4F",
"q  c #98695C",
"w  c #897155",
"e  c #AB6B4D",
"r  c #B06D4F",
"t  c #AB685A",
"y  c #B56B53",
"u  c #B87455",
"i  c #8D7063",
"p  c #897978",
"a  c #A97A68",
"s  c #BE7A6E",
"d  c #BF7D71",
"f  c #C45F4D",
"g  c #C6614E",
"h  c #C66654",
"j  c #CA6955",
"k  c #C66A58",
"l  c #C6765A",
"z  c #D2735A",
"x  c #D3795F",
"c  c #CB7563",
"v  c #C97A69",
"b  c #D37C64",
"n  c #D07D6B",
"m  c #6F827B",
"M  c #7B8674",
"N  c #8F952C",
"B  c #A09D26",
"V  c #90925F",
"C  c #A38C5E",
"Z  c #A3905E",
"A  c #B3B256",
"S  c #9B8365",
"D  c #9D856B",
"F  c #8A8875",
"G  c #979676",
"H  c #A1896A",
"J  c #B88965",
"K  c #A69469",
"L  c #BA8778",
"P  c #A79D71",
"I  c #96AB73",
"U  c #9EA37B",
"Y  c #A9AC66",
"T  c #BAA768",
"R  c #ADBA64",
"E  c #A8A477",
"W  c #B7AB77",
"Q  c #BDAE7D",
"!  c #B9B779",
"~  c #C3BC57",
"^  c #CF886E",
"/  c #C28679",
"(  c #CB897B",
")  c #C8B76D",
"_  c #CBB66C",
"`  c #C2AE77",
"'  c #C4B273",
"]  c #CAB572",
"[  c #CAB874",
"{  c #C4B27D",
"}  c #CCBC7D",
"|  c #D4BA76",
" . c #ACC57D",
".. c #CBC45E",
"X. c #CCC55D",
"o. c #CCC464",
"O. c #D1C675",
"+. c #768889",
"@. c #789396",
"#. c #799EA7",
"$. c #7FAEBC",
"%. c #5DCDD8",
"&. c #66CFD9",
"*. c #65D0D9",
"=. c #6ED3DA",
"-. c #76D6DB",
";. c #7AD5DD",
":. c #7ED8DC",
">. c #858688",
",. c #978D85",
"<. c #8A928F",
"1. c #979A88",
"2. c #8A9795",
"3. c #929697",
"4. c #9D9291",
"5. c #94999D",
"6. c #9B9C9E",
"7. c #AD8C87",
"8. c #A68C8A",
"9. c #B48E84",
"0. c #A6968B",
"q. c #B9958B",
"w. c #A39493",
"e. c #A89793",
"r. c #9DA58C",
"t. c #9AA998",
"y. c #A9A886",
"u. c #B7AA8A",
"i. c #BAB387",
"p. c #A6A896",
"a. c #B1AC97",
"s. c #BAB798",
"d. c #9A9EA1",
"f. c #A69EA0",
"g. c #8BA5A5",
"h. c #9BA0A3",
"j. c #9CACA9",
"k. c #89ACB5",
"l. c #93B2B3",
"z. c #97B7BA",
"x. c #AAA5A4",
"c. c #B9A7A4",
"v. c #A3B5AD",
"b. c #BCB1AC",
"n. c #BBBAA8",
"m. c #B9BCB3",
"M. c #B8B9BB",
"N. c #C4968A",
"B. c #D39685",
"V. c #C3B383",
"C. c #C7B987",
"Z. c #CCB48F",
"A. c #D5A79B",
"S. c #CFACA6",
"D. c #C5B6A8",
"F. c #CDBCAB",
"G. c #D5B9AA",
"H. c #C9BAB2",
"J. c #D5B9B2",
"K. c #E4BDB2",
"L. c #98D3AF",
"P. c #BCC6A8",
"I. c #B5CFB6",
"U. c #CFC78A",
"Y. c #D4C484",
"T. c #D3C88A",
"R. c #D9CB8B",
"E. c #C9C598",
"W. c #D8CD93",
"Q. c #DDD297",
"!. c #E2D69A",
"~. c #C7C5A5",
"^. c #D6D1AB",
"/. c #C9C7B8",
"(. c #D3C4B5",
"). c #D6C8B7",
"_. c #D8C7B8",
"`. c #D5CCBB",
"'. c #D9C9BA",
"]. c #DAD4B6",
"[. c #DEE1B4",
"{. c #E1E3B8",
"}. c #89BDCC",
"|. c #9ABCC1",
" X c #99D1C5",
".X c #87D9D9",
"XX c #82DADC",
"oX c #8ADCDE",
"OX c #94DEDE",
"+X c #99DFDE",
"@X c #A9C9C6",
"#X c #AACBD3",
"$X c #B3D7D0",
"%X c #9BE1DE",
"&X c #AFE2DC",
"*X c #BBE5DC",
"=X c #92DDE0",
"-X c #96E0E0",
";X c #9DE2E0",
":X c #A4E4E1",
">X c #ACE4E2",
",X c #AEE9E6",
"<X c #B2E6E4",
"1X c #BBE7E5",
"2X c #B2E9E5",
"3X c #BCEBE4",
"4X c #C7C7C3",
"5X c #D7CBC3",
"6X c #C4D9C6",
"7X c #DDD5C6",
"8X c #D7D4CF",
"9X c #C2DDD3",
"0X c #DBDAD2",
"qX c #E1DAC5",
"wX c #E2D9CB",
"eX c #E2DFD2",
"rX c #C7E9DB",
"tX c #D7E4D5",
"yX c #EDE6DB",
"uX c #C2EDE5",
"iX c #CAECE9",
"pX c #D4ECED",
"aX c #D9EDEF",
"sX c #C8F1E8",
"dX c #DEF0EF",
"fX c #E1EFEE",
"gX c #E2F0EF",
"hX c #E2EFF1",
"jX c #EBF1F2",
"kX c #F2F2F2",
"lX c #F4F3F4",
/* pixels */
"%.%.%.%.%.%.%.%.%.%.%.%.%.%.%.%.%.%.%.%.%.%.%.%.%.%.%.%.%.%.%.%.%.%.%.%.%.%.%.%.%.%.%.%.%.%.%.%.",
"&.&.&.&.&.&.&.&.&.&.&.&.&.&.*.*.&.&.&.&.&.&.&.&.*.*.*.*.*.&.&.&.&.&.&.*.*.*.*.*.&.&.&.&.&.&.*.*.",
"=.=.=.=.=.=.=.=.=.=.=.=.XX>XiXiX>X;.=.-.=.=.=.=.=.=.=.=.=.=.-.=.=.-.-.-.=.=.=.=.=.=.=.=.-.=.=.=.",
"-.-.-.-.-.-.-.-.-.-.-.=XaXlXlXlXkX1X;.-.-.-.-.-.-.-.-.-.-.-.-.-.-.-.-.-.-.-.-.-.-.-.-.-.-.-.-.-.",
":.:.:.:.:.:.:.:.:.:.oXaXlXkXkXkXkXhX=XXXXXXXXXXXXXXXXXXXXXXXXXXXXXXXXXXXXXXXXXXXXXXXXXXXXXXXXXXX",
"oXoXoXoXoXoXoXoXoXoX<XkXkXkXkXkXkXkX>XXXXXXXoXoXoXoXoXoXoXoXoXoXoXoXoXoXoXoXoXoX.XoXoXoXoXoXoXXX",
"oXOXoXoXoXoXoXoXoXOXpXkXkXkXkXkXkXkX<XoXOXOXoXoXoXoXoXoXOXOXOXOXoXoXoXoXOXOX=XL.R  X=XoXoXoXOXOX",
"-X-X-X-X-X%X;X+XOX:XfXkXkXkXkXkXkXkX1X1XaXiX;X-X-X-X-XOXOXOXOXOXOXOXOXOX%X%X%X .B I +XOX%X%XOXOX",
";X;X;X%X>XiXaXaXuX>XgXkXkXkXkXkXkXkXaXkXlXkX<X;X;X%X%X;X;X;X;X;X;X;X;X;X;X%XL.A N N  X;X;X;X;X;X",
":X:X:X<XgXlXlXlXlXgXjXlXlXkXkXkXkXkXkXkXkXkXpXaXpX>X:X:Xk.+.+.+.@.g.g.g.2.m > > o > 2.g.g.g.g.z.",
":X:X>XiXtXeXeX0X0X0X0X0XeXfXgXgXgXgXgXgXfXfXdXgXhXiX>X>X@.O O O # 1 1 1 , + O O # 1 2 1 1 1 1 <.",
">X>X>X<XP.i.K P P P E C.E.&X2X2X>X#X X>X<X<X<X<X<X<X>X,X@.+ + + # * * * $ + + + # $ * * * * * +.",
"2X2X2X2XP.i.P P Q W E Q ~.&X2X2X@X3.2.z.<X2X2X2X2X2X2X2Xv.8 8 8 t t t t t 8 8 8 8 t t t t t t x.",
"*X6X6X6X/.s.s.~.~.P.s.i.P.I.I.I./.'.'.6X2X2X2X2X2X2X2X2Xm.g g g j z z z j g g g g z z z z z z D.",
"$XE.C.{ { { { { { ` ` ` ` W W i.P.7X'.9X3X3X3X3X3X3X3X3Xm.y h h j x b b z h h j h z x b b l h D.",
"3XuXE.[ _ _ _ _ _ _ _ _ _ _ [ rX*X`.`.9X3X3X3X3X3X3X3X3X4XS.H.A.c G.J.J.B.( J.J.B.z A.J.J.G.b F.",
"uXuX^.C.p.y.Y.i.t.W O.y.r.Q U.rX3Xv.j.*X3X3X3XuXuXuXuXuX4Xw.5.8.c e.5.5.L d 3.5.L z q.3.5.w.b K.",
"uXuX[.E.l.t.W.s.k.p.W.p.k.i.Q.rXuX@Xz.sXuXuX3X3X3XuXuXuX/.w.h.8.c e.h.5.L s 6.d.L z 9.6.d.e.b J.",
"uXuX{.E.z.v.!.s.z.a.!.p.z.i.!.rXsX@Xz.1X*X$Xm.m.P.$X*X*XI.w.h.8.c e.h.5.L s 6.d.L z 9.d.d.e.b F.",
"sXsX{.E.1.P !.i.1.E !.y.1.Q !.rXsX@Xm ; ; : /.5X7XM ; ; i w.h.8.c e.h.5.L s d.6.d z 9.d.d.e.b F.",
"sXrX{.!.R.R.!.Q.Y.R.!.R.Y.R.!.tXsX@X3 X X @ /.4.H.:   . = 4.5.8.c w.5.3.L s 3.5.d z 9.5.5.w.b F.",
"6XZ.C.C.C.C.C.C.C.V.V.V.V.{ { i.I.@X4 X X @ /.e.H.: . X = 7.4.7.z q.4.4./ v 4.4.L z N.4.4.q.n F.",
"rX6XU.] ] ] ] ] ] ] ] ] ] ] ' m.@X|.4 X X @ D.,.n.: . . % k k k j b b n c h k k k z b b b b z F.",
"sXsXW.' U E [ W U W [ E U T [ @X#X|.m - - : /.D.).F - - > g g f j z h j z h f f g j n A.A.^ z F.",
"uXuX^.C.k.t.Y.y.k.y.Y.r.k.W U.@X#Xz.j./.D.`.eX7XyX`.D.~.S.k j h j b b b z h j j k n J.M.M._.^ (.",
"$X*X[.E.k.t.W.u.k.y.R.p.k.i.W.@X#Xz.v.n.4.`.wX4./.wXe.p.H.S.J.A.n J.J.J.B.( H.F.J.5X4X4X4X4X5X0X",
"I.P.Q.U.3.1.W.i.2.E Q.y.2.Q Q.I.@Xl.v.b.6.`.wXe./.qXp.x.D.4.5.0.v w.5.3./ d 3.5.N.H.<.>.>.<.b.`.",
"R A R.Q.[ } !.Y.' } !.} ' Y.R.C.! I U u.G ).7X,.D.qX0.0.V.w.h.8.c w.h.3./ s 6.6.q.b.3.>.>.3.b.V.",
"o.{ V.V.V.V.V.V.V.{ Q Q Q Q Q W A Y E Z.q.).`.D D.qXu.u.V.w.h.8.c w.h.5./ s 6.6.q.b.3.>.>.3.b.| ",
"o.o._ ' ' ' ' ' ' ' ' ' T ' ' _ o.Y U [.qXn.: - ; p.7XqXZ.w.h.8.c w.h.3./ s d.6.q.b.3.>.>.3.b.| ",
"X..._ W <.G T T T T T G 2.P ' ..X.Y E ].7XF @ - @ : (.7XZ.w.5.8.c 4.5.3.L s 5.3.q.b.<.>.>.<.b.| ",
"~ A } i.#.<.Z w w > w G #.E } o.X.Y E ].`.w : 4 4 9 F.qXZ.7.4.9.c e.w.w./ v w.w.N.b.2 , , 1 c.| ",
"....R.C.k.t.W #.@.#.G 1.k.y.Y.o.X.Y U ].`.q p ,.,.9 F.qX{ k k h j b b b z 0 y k B.x.$ $ $ $ f.i.",
"X.o.R.C.F G i.@X|.#Xa.P F E Y.o.X.Y U ].`.q p >.,.q F.qXZ.( ( ( B.B.B.B.B.( / ( S.x.= = = = f.i.",
"O.O.R.T.} C.C.|.$.}.p.} ' } Y.O.O.E E ].`.q % % % 9 (.7X^.p.5 >.4X4.5 p 4Xx.5 >.4Xc.7 6 7 7 c.~.",
"H K K K K K C F 4 M i C C C C H S F <.D.s.q q i i 9 u.s. .G & 1 H.p & = b.,.& 3 H.c.7 6 6 7 c.5X",
"S H H D D D D H H D D D D D D S w 5 >.D.D.9.(.0X5X9.a.s.! J r u u u u u u u r D.8XD.a a a a D.5X",
"_._._._._._._._._._._._._.'.'.'._.3.>.).'._._._._._._.'._.( u l u l l l l u u G.'.'.'._.'.'.'.'.",
"'.'.'.'.'.'.'.'.'.'.'.'.'.'.'.'.'.3.+.(.'.'.'.'.'.'.'.'.G.J e u y r r r y r e N.'.'.'.'.'.'.'.'.",
"'.'.'.'.'.'.'.'.'.'.'.'.'.'.'.'._.2.+.(.'.'.'.'.'.'.'.'.G.a a L L L L L L L w q._.'.'.'.'.'.'.'.",
"'.'.'.'.'.'.'.'.'.'.'.'.'.'.'.'._.<.M ~.'.'.'.'.'.'.'.'.'.a.D.'.'.'.'.'.'.'.a.H.'.'.'.'.'.'.'.'.",
"'.'.'.'.'.'.'.'.'.'.'.'.'.'.'._.D.>.V a._.'.'.'.'.'.'.'.'.(.).'.'.'.'.'.'.'.(.).'.'.'.'.'.'.'.'.",
"'.'.'.'.'.'.'.'.'.'.'.'.'.'.'.'.H.b.D.D.`.'.'.'.'.'.'.'.'.'.'.'.'.'.'.'.'.'.'.'.'.'.'.'.'.'.'.'.",
"8X8X8X8X8X8X8X8X8X8X8X8X8X8X8X8X8X8X8X8X8X8X8X8X8X8X8X8X8X8X8X8X8X8X8X8X8X8X8X8X8X8X8X8X8X8X8X8X",
"M.M.M.M.M.M.M.M.M.M.M.M.M.M.M.M.M.M.M.M.M.M.M.M.M.M.M.M.M.M.M.M.M.M.M.M.M.M.M.M.M.M.M.M.M.M.M.M.",
"3 3 3 3 3 3 3 3 3 3 3 3 3 3 3 3 3 3 3 3 3 3 3 3 3 3 3 3 3 3 3 3 3 3 3 3 3 3 3 3 3 3 3 3 3 3 3 3 ",
"< < < < < < < < < < < < < < < < < < < < < < < < < < < < < < < < < < < < < < < < < < < < < < < < ",
"3 3 3 3 3 3 3 3 3 3 3 3 3 3 3 3 3 3 3 3 3 3 3 3 3 3 3 3 3 3 3 3 3 3 3 3 3 3 3 3 3 3 3 3 3 3 3 3 "
};
