/* XPM */
static char *f6738be06dc3436aceaec34577296067tZcDYTq37RE5YJPc[] = {
/* columns rows colors chars-per-pixel */
"48 48 256 2 ",
"   c #191A34",
".  c #141929",
"X  c #3B1229",
"o  c #281B3A",
"O  c #381C36",
"+  c #2C1528",
"@  c #1C233C",
"#  c #23263D",
"$  c #3A293B",
"%  c #240C1D",
"&  c #561629",
"*  c #561C34",
"=  c #48172B",
"-  c #681927",
";  c #5C2638",
":  c #4B263F",
">  c #682B38",
",  c #76373B",
"<  c #6F2E33",
"1  c #70111A",
"2  c #4D6C29",
"3  c #657633",
"4  c #4C6612",
"5  c #1E1C45",
"6  c #2B1E44",
"7  c #292A45",
"8  c #2B3348",
"9  c #35314F",
"0  c #352D67",
"q  c #5A2C48",
"w  c #573757",
"e  c #4A314D",
"r  c #7B3844",
"t  c #6B344C",
"y  c #4C3A69",
"u  c #3A466D",
"i  c #335958",
"p  c #534A53",
"a  c #7C424B",
"s  c #69455B",
"d  c #78485A",
"f  c #6F555B",
"g  c #7B6755",
"h  c #68674A",
"j  c #594966",
"k  c #515072",
"l  c #674763",
"z  c #734C64",
"x  c #7B4B65",
"c  c #785468",
"v  c #6A5977",
"b  c #6F5470",
"n  c #57627A",
"m  c #556F6F",
"M  c #736670",
"N  c #5D604E",
"B  c #3F5A24",
"V  c #8C3638",
"C  c #BF3E21",
"Z  c #93503B",
"A  c #AC4F34",
"S  c #F87715",
"D  c #CC7132",
"F  c #DD6221",
"G  c #893B47",
"H  c #883A4F",
"J  c #874546",
"K  c #984748",
"L  c #995547",
"P  c #884858",
"I  c #865B5B",
"U  c #98514F",
"Y  c #A95746",
"T  c #B45B48",
"R  c #A65854",
"E  c #A54F4F",
"W  c #8E6E56",
"Q  c #A86549",
"!  c #B86947",
"~  c #BB764A",
"^  c #B66C57",
"/  c #A87356",
"(  c #BA7759",
")  c #A96C54",
"_  c #845D73",
"`  c #8A5C66",
"'  c #87647A",
"]  c #887A79",
"[  c #977679",
"{  c #91726E",
"}  c #AD7A68",
"|  c #A45869",
" . c #C67B4B",
".. c #C6764A",
"X. c #C77953",
"o. c #C86F4A",
"O. c #CC7C70",
"+. c #6F9128",
"@. c #30877E",
"#. c #6E8C65",
"$. c #899528",
"%. c #98AF2B",
"&. c #A9B932",
"*. c #9FA025",
"=. c #FB9611",
"-. c #EC8E2B",
";. c #E9AE20",
":. c #B9CE30",
">. c #A4C816",
",. c #FFE833",
"<. c #ECD625",
"1. c #B98659",
"2. c #B19553",
"3. c #ADB048",
"4. c #888567",
"5. c #998668",
"6. c #968876",
"7. c #969975",
"8. c #8A8F72",
"9. c #AC906F",
"0. c #B1A972",
"q. c #959B69",
"w. c #CB844E",
"e. c #C88959",
"r. c #D28C53",
"t. c #D68A58",
"y. c #CB935B",
"u. c #D89659",
"i. c #D78D4B",
"p. c #E79350",
"a. c #DEA15D",
"s. c #E3A65C",
"d. c #F5B45A",
"f. c #C78C64",
"g. c #CC9463",
"h. c #C89667",
"j. c #D49B64",
"k. c #D59967",
"l. c #CE9472",
"z. c #DCA364",
"x. c #DAA46B",
"c. c #DCA96C",
"v. c #D5A668",
"b. c #DCB36C",
"n. c #DBAC73",
"m. c #D7A774",
"M. c #DDB372",
"N. c #DBB479",
"B. c #CBA672",
"V. c #E3A965",
"C. c #E3B46D",
"Z. c #E8B66B",
"A. c #E4A976",
"S. c #E1B574",
"D. c #E7B977",
"F. c #F2B873",
"G. c #E19A68",
"H. c #BBC650",
"J. c #CBD14E",
"K. c #EAC578",
"L. c #F2C778",
"P. c #F2D774",
"I. c #E2D563",
"U. c #525486",
"Y. c #6D5A91",
"T. c #586F87",
"R. c #786B86",
"E. c #7D7488",
"W. c #786497",
"Q. c #707090",
"!. c #7E73A9",
"~. c #85798B",
"^. c #987786",
"/. c #887795",
"(. c #8F6C8A",
"). c #A5778C",
"_. c #8E77A7",
"`. c #3D8D86",
"'. c #3A8D86",
"]. c #399486",
"[. c #3DA285",
"{. c #44938A",
"}. c #4B9C8B",
"|. c #479889",
" X c #488B8E",
".X c #778F90",
"XX c #4BA38A",
"oX c #4AA68B",
"OX c #53A48C",
"+X c #55AA8C",
"@X c #59AB8C",
"#X c #5CB28E",
"$X c #59A892",
"%X c #5AB790",
"&X c #65BB8E",
"*X c #60B48E",
"=X c #77AA98",
"-X c #63B692",
";X c #72B28E",
":X c #6BB1AA",
">X c #589EA8",
",X c #6BC38E",
"<X c #69C48B",
"1X c #73CB8E",
"2X c #6AC692",
"3X c #75CF95",
"4X c #73D79D",
"5X c #6AE1D3",
"6X c #95978B",
"7X c #868499",
"8X c #938B97",
"9X c #989799",
"0X c #8E8F8B",
"qX c #B5978B",
"wX c #AF918F",
"eX c #86AB9B",
"rX c #90B696",
"tX c #ABA992",
"yX c #9596AA",
"uX c #AE96A8",
"iX c #8CAFAA",
"pX c #B2B2AF",
"aX c #CDB090",
"sX c #E6B883",
"dX c #C9B5AE",
"fX c #C38084",
"gX c #98C799",
"hX c #87D995",
"jX c #94CC91",
"kX c #A4CE92",
"lX c #8DE397",
"zX c #98E797",
"xX c #A6EA9A",
"cX c #AAF59D",
"vX c #B7F89C",
"bX c #B6EE9D",
"nX c #94D0A8",
"mX c #A7D6AA",
"MX c #B6D1B3",
"NX c #BAF9A3",
"BX c #A7EFA1",
"VX c #95E6A2",
"CX c #CED696",
"ZX c #EBC689",
"AX c #F3CB87",
"SX c #F0D291",
"DX c #CFF89E",
"FX c #F9E799",
"GX c #E8EC95",
"HX c #CBC9BA",
"JX c #D2F6A5",
"KX c #F5F7AB",
"LX c #E2C0AC",
"PX c #CFCDC9",
"IX c #E3EAD6",
"UX c #BAB2C2",
/* pixels */
"`.'.'.'.'.'.'.'.'.'.'.'.`.'.'.'.'.`.`.'.'.'.@.].].].@.].'.`.`.'.'.'.'.`.'.`.{.{.{.{.'.`.'.'.'.'.",
"{.{.{.{.{.{.{.{.{.{.{.{.{.{.{.{.{.{.{.`.{.:XnXMXpXpXiXOX].{.{.{.{.{.{.{.{.|.|.|.|.{.{.{.{.{.{.'.",
"{.|.|.|.|.|.|.|.|.}.|.|.|.}.}.|.}.|.{.$XPXdXk.u.i.i.l.uXiX|.|.|.|.|.|.|.|.|.}.}.|.|.|.|.|.|.|.{.",
"}.}.}.}.}.}.}.}.XXXXXXXX}.}.XXXXXX}.-XIXl.;.,.,.,.,.<.-.fXyXXXXX}.}.}.}.}.}.}.}.}.}.}.}.}.}.}.}.",
"}.}.}.}.}.OXOXOXOXOXOXOXOXOXOXXX|.oXHXw.;.,.P.aXaXaXd.<.=.O..X[.|.XXOXOX+XOX+XOXOXOXOXOXOXOX}.}.",
"OXOXOXOXOXOX+XXXXXoXoXoXoXoX@XnXnXMXLXs.P.SXUXv j R.UXD.d.s.uXiXiX=XoXoXoXoXoXoXoX+X+XOXOXOXOXOX",
"+X+XOXOX+X+X@XnXMXmXmXmXmXgXMXdX(.(.Y.Q.W.7X/.8X8X~.~.!.k Y.8Xv v _.rXmXgXgXgXgXrX*X+X@X@XOX+X+X",
"@X@X+X@X@X@X#XCXAXF.F.AXF.Z.ZX/.Y.PXY.PX8XPXE.7XPXQ.pXpX.XyXyX9X0 W.R F.k.G.G.t.t.:X#X@X@X@X@X+X",
"#X#X#X#X#X#X%X0.s.s.a.u.u.i.m./.Y.IXPXHXyXPXU.y pXy PXHX8XpX0 HXy W.> o.r. ...o.! =X-X*X*X#X#X#X",
"&X#X*X*X&X&X%X7.p.u.u.u.i.i.l.W.k /.0 /.~.dX/.y 8Xy 8X~.v ~.dXM 0 Y.> A  .o.o.o./ -X&X&X&X&X&X&X",
"&X&X&X&X&X,X2XrXj.u.y.y.y.r.} _./._./.W.W._./.W.W.W.W.!.W.Y.Y.Y.W.Y.q G ^ ( ( o.6.2X,X,X,X,X&X&X",
",X,X<X<X,X,X<X3Xh 1 1 1 - - & 6 6 j (.C C ).W.9 7 9 !.| C A Y.7 6 5 = & & & * y $X4X1X1X1X1X,X,X",
"1X,XhXrX;X4XhXeX2XW D D D D D A < = _.t.=.-.^ ^.^.^.T S S O.U.X & - < V V A A ;XVX=X4X4XgX;X1X1X",
"1X1XtXaXl rXdX} m xXd.d.d.d.d.d.i.A q _.t.=.=.S S S S S O.Y.O V V V V A o.i.u.3XwX[ n 0XaXc @XhX",
"3X3XkXF.5.M 0.A.eXkXV.c.c.V.c.x.z.u.! e W.wXt.p.-.p.O.).U.o , G U Q ^ o.t.X.f.hXB.sXj n S.qX3XhX",
"hXhXhX7.hX0X;XjXlXCXsXS.n.S.D.sXN.n.D.j.q y Y.W.(.Y.U.0 O H R ( A.D.x.k.k.k.l.VXjXjX.X=XjXjXlXhX",
"hXlXlXlXxXuX=XzXzX4.V ) ! Z < < > > < < < X = q e : % X * * ; > > > L ) L , q gXxXzX0X.XlXzXlXlX",
"lXzXzXzXjXs T.BXzXjXv.FXD. .V = & > < < , , L l.( ) ; ; ; > > > = Q SXSXr.G T.BXxXjXp k VXxXzXzX",
"zXzXzXzXzX0XjXcXxXxXy.h.1.Z t w J ^ f.h.sXZXD.AXAXh.U f.) R ^ ^ Q ~ h.1.Q w :XcXxXcX.X=XcXxXxXxX",
"7.kXBXBXcX9XgXcXxXbX~ 1.e.Z ; t R X.S.FXAXf.Q g.k.Q J k.L.N.k.x.x.Q 1.1.Z q =XNXxXvX6XeXvXxXNXCX",
"4.4.7.kXNX9XgXvXxXbXK.AXK...r , L B.AXf.r = X < r ; X & J h.n.g.g.g.SXZXX.d .XNXbXvX6XeXNXJXAX( ",
"7.8.#.4.NX9XgXDXvXvXK.ZXC.~ H r ( AXf.* O . . tXIX] . + X < m.m.g.c.SXN.o.x eXDXbXDX6XiXGXx.u.e.",
"8.8.tXtXMXuXpXMXMXmXL.ZXS. .H r m.m.t + . .   6.HXf   . . X J S.f.v.SXS...x eXJXDXDX6X0XV.S.AXv.",
"#.6.] c M M M f U.iXL.ZXC. .H J D.W y @ . # 8 f 0Xp 8 7 . 8 q e.k.y.AXM...x eXKXJXGX0X6XP.M.1.g.",
"4.7.] ] 0X{ 6.{ U.iXL.ZXC. .H J x.d k u # 8 7 8.IXf 8 8 7 U.y Q A.1.AXN.o.z iXKXGXGX6X6Xy.1.1.g.",
"7.7.] b b b b b U.eXL.D.z. .H J e.q k U.9 8 9 m tXp 9 8 u U.p Q k.1.K.n.o.z iXFXS.K.tX0Xc.S.F.g.",
"4.4.4.7.CXv tXJXCXJXS.D.z...H J f.t   k u 8 8 m pXp 9 8 U.u + e.x.e.K.c.! z iXFXS.K.tX6XL.m.h.g.",
"4.4.4.tXKX9XaXSXKXKXM.A.u.! H a ( s   7 Q.7X7X9X9X8X~.7XU.  $ r.j.e.D.z.! z iXFXF.AXtX6Xg.1.1.g.",
"4.4.4.0.GX9XB.V.FXKXx.z.r.A t a ( s @ 7 !.Q.=X.X8X.X.X7XR.  $ t.g.~ C.y.Y z 0XI.3.K.tX0Xx.B.x.e.",
"{ 5.H.:.&.E.0.F.FXKXC.D.V...x r R s # 9 R. X5X>Xv 5X5XT.U.@ e r.e. .L.S.X._ m %.%.+.0X6XF.V.V.e.",
"{ 2.:.:.&.0X#.b.J.J.n.sXk.^ d t E z # 9 v T.>X Xv >X>XT.k # p u.t.j.sXm.( P m +.$.+.m 6XZ.c.A.f.",
"{ %.:.%.0.^.m :.:.*.m.ZXz.o.P q I z # 8 v ~.R.E.R.E.R.0Xk # p j.( y.ZXN.w.K n 2 3 3 8XU.7.u.f.f.",
"4.$.$.+.9.(.p &.*.2.F.Z.y.! V x ^.w 7 7 v ] R.R.M E.M 6.k @ p t.qXg.Z.u.X.E b 2 4 3 wXk @.2.h.g.",
"4.W 3 2 qX).k %.*.$.2.2.v.c./ qXw J Z / 1.h.v.v.v.v.v.h.h.2.y.w.wXqXV.S.e.Z N B 4 h uXU.i 2.g.g.",
"5.9.5.5.qX5.N +.$.%.H.GXSX9.} ' O Y  .s.Z.L.L.L.K.L.L.L.Z.F.d.e.I qXg.AXFXP.J.:.>.3.6.j m n.m.k.",
"9.9.9.0.H.J.J.I.GXFXFX9.P > wX9 > ! w.V.C.K.K.K.D.K.K.D.C.C.V.z.I [ 9...V.ZXFXFXP.I.J.3.q.6.5.9.",
"g g 0.ZXSXSXsXSXAXl.J r = M v o K T X.z.V.Z.Z.Z.V.Z.Z.Z.V.V.V.s.( d qXI ( t.x.sXA.sXm.A.k.9.M g ",
"W W x.s.u.u.t.t.u.R t O 9 ^.o q Y T ..a.C.Z.Z.Z.V.Z.Z.V.s.V.z.u.y.I [ qXc W w.X.! ! T T T R 8.W ",
"g W 1.L Z Z Z Z Z , 6 5 (.j o G E Y ! u.V.s.s.V.a.s.s.s.a.u.u.r.u.) x qX[ _ ` J , , , , < P 6.g ",
"5.9.5.I d s w s s e 9 p ^.  q K K Y T u.V.V.s.s.u.a.a.u.u.r.u.r.r.w.d ` qX` wXc w w e e e n 9.6.",
"W W { qX).).[ ^.^.w 6 ).e o a K E Y Y r.V.a.z.z.u.z.j.u.u.r.r.y.r.r./ z wX[ _ [ c _ c c x T.g g ",
"g g W ).^.(._ qXuX] ^.'   e K K K K Y  .r.r.r.r.w.r.r.w.w. . . .....! z c qXqXwXwX' l b l T.f f ",
"f W } [ ' ' _ [ [ [ b o o a E E R R ~ y.c.x.z.x.j.x.x.j.j.j.y.j.j.y.j.W z c ^.' c y l z l T.z s ",
"/ / / [ ' ' _ c w o   o O G G K K K Y !  . . . .~  . . ...~ ! ....~ ..Q z x w e e w l l j n d d ",
"/ 1.j.` c c c _ ' w 6 6 t K U E E Y e.k.v.x.x.v.g.v.j.j.j.j.e.g.g.y.e.e.d l c _ l l w l w n d s ",
"j.Z.c.c b b l b b e 6 6 r G V Z Y Y ! ! ~ ! ! ! ! ! ! ! ! ! Q Q Y Y Y T U l z x l w w w w n P P ",
"C.Z.b.` c c c c c p 9 a ^ ^ ( e.e.g.m.c.M.c.c.x.j.m.m.v.x.c.g.v.c.c.x.x.k.I c c z l s s s b | / ",
"b.C.C.v.b.S.M.S.M.M.v.D.S.S.C.S.v.v.S.C.M.M.b.b.v.M.b.M.M.S.c.v.S.C.M.S.b.M.S.N.M.n.M.M.n.m.N.D."
};
